<?xml version="1.0" standalone="no"?>
<!DOCTYPE svg PUBLIC "-//W3C//DTD SVG 20010904//EN"
 "http://www.w3.org/TR/2001/REC-SVG-20010904/DTD/svg10.dtd">
<svg version="1.0" xmlns="http://www.w3.org/2000/svg"
 width="800.000000pt" height="800.000000pt" viewBox="0 0 800.000000 800.000000"
 preserveAspectRatio="xMidYMid meet">
<metadata>
Created by potrace 1.14, written by Peter Selinger 2001-2017
</metadata>
<g transform="translate(0.000000,800.000000) scale(0.100000,-0.100000)"
fill="#000000" stroke="none">
<path d="M3758 7995 c-2 -1 -43 -6 -93 -9 -49 -4 -103 -9 -120 -11 -16 -2 -52
-7 -80 -10 -159 -19 -440 -79 -595 -126 -36 -11 -72 -22 -80 -24 -24 -5 -258
-91 -330 -120 -131 -54 -419 -200 -512 -261 -21 -13 -40 -24 -42 -24 -3 0 -47
-28 -98 -62 -315 -208 -592 -450 -827 -723 -47 -55 -91 -105 -96 -111 -6 -6
-51 -66 -100 -133 -204 -275 -385 -602 -513 -926 -70 -177 -170 -515 -188
-634 -3 -20 -9 -52 -14 -71 -5 -19 -11 -51 -14 -70 -9 -61 -27 -184 -31 -215
-27 -189 -27 -739 0 -907 2 -13 6 -45 9 -73 8 -74 45 -281 62 -350 8 -33 16
-70 19 -83 10 -56 72 -259 115 -382 147 -416 358 -796 636 -1147 214 -270 482
-530 744 -722 47 -34 92 -68 100 -74 16 -12 63 -44 92 -62 9 -5 67 -41 130
-79 399 -245 886 -430 1343 -511 96 -17 149 -25 205 -31 36 -3 67 -8 70 -10 3
-1 53 -6 110 -11 200 -15 661 -8 782 12 13 2 43 6 68 9 60 7 120 16 146 21 12
3 39 7 60 11 21 3 59 10 84 16 25 5 56 12 70 14 140 27 484 135 640 201 19 8
44 19 55 23 48 20 355 172 405 201 971 563 1656 1475 1911 2545 23 98 27 115
34 159 3 17 8 41 10 55 3 14 7 35 10 48 7 41 25 175 31 232 3 30 7 69 10 85
10 58 12 561 4 650 -13 130 -20 195 -26 235 -6 46 -25 165 -28 182 -2 7 -6 31
-11 53 -23 121 -71 307 -111 435 -354 1118 -1187 2028 -2272 2483 -201 85
-557 195 -717 223 -16 2 -37 7 -45 9 -8 2 -31 7 -50 10 -19 3 -46 7 -60 10
-14 2 -45 7 -70 10 -25 3 -52 8 -60 10 -8 2 -49 6 -90 10 -41 4 -88 9 -105 11
-33 6 -571 14 -577 9z"/>
</g>
</svg>
